<mxfile host="Electron" agent="Mozilla/5.0 (Windows NT 10.0; Win64; x64) AppleWebKit/537.36 (KHTML, like Gecko) draw.io/24.7.17 Chrome/128.0.6613.36 Electron/32.0.1 Safari/537.36" version="24.7.17">
  <diagram name="Page-1" id="TP6hWI6JRMsZtVJN5mkv">
    <mxGraphModel dx="1400" dy="803" grid="1" gridSize="10" guides="1" tooltips="1" connect="1" arrows="1" fold="1" page="1" pageScale="1" pageWidth="850" pageHeight="1100" math="0" shadow="0">
      <root>
        <mxCell id="0" />
        <mxCell id="1" parent="0" />
        <mxCell id="f04tPwx1q8W1xNw42oUn-1" value="DB" style="shape=datastore;whiteSpace=wrap;html=1;fillColor=#f5f5f5;fontColor=#333333;strokeColor=#666666;" vertex="1" parent="1">
          <mxGeometry x="500" y="410" width="60" height="60" as="geometry" />
        </mxCell>
        <mxCell id="f04tPwx1q8W1xNw42oUn-4" value="" style="edgeStyle=orthogonalEdgeStyle;rounded=0;orthogonalLoop=1;jettySize=auto;html=1;" edge="1" parent="1" source="f04tPwx1q8W1xNw42oUn-2" target="f04tPwx1q8W1xNw42oUn-3">
          <mxGeometry relative="1" as="geometry" />
        </mxCell>
        <mxCell id="f04tPwx1q8W1xNw42oUn-2" value="Select DB type" style="rounded=0;whiteSpace=wrap;html=1;fillColor=#fff2cc;strokeColor=#d6b656;" vertex="1" parent="1">
          <mxGeometry x="130" y="250" width="120" height="60" as="geometry" />
        </mxCell>
        <mxCell id="f04tPwx1q8W1xNw42oUn-6" value="" style="edgeStyle=orthogonalEdgeStyle;rounded=0;orthogonalLoop=1;jettySize=auto;html=1;" edge="1" parent="1" source="f04tPwx1q8W1xNw42oUn-3" target="f04tPwx1q8W1xNw42oUn-5">
          <mxGeometry relative="1" as="geometry" />
        </mxCell>
        <mxCell id="f04tPwx1q8W1xNw42oUn-3" value="Select schema template" style="whiteSpace=wrap;html=1;rounded=0;fillColor=#fff2cc;strokeColor=#d6b656;" vertex="1" parent="1">
          <mxGeometry x="300" y="250" width="120" height="60" as="geometry" />
        </mxCell>
        <mxCell id="f04tPwx1q8W1xNw42oUn-11" value="" style="edgeStyle=orthogonalEdgeStyle;rounded=0;orthogonalLoop=1;jettySize=auto;html=1;" edge="1" parent="1" source="f04tPwx1q8W1xNw42oUn-5" target="f04tPwx1q8W1xNw42oUn-10">
          <mxGeometry relative="1" as="geometry" />
        </mxCell>
        <mxCell id="f04tPwx1q8W1xNw42oUn-15" value="" style="edgeStyle=orthogonalEdgeStyle;rounded=0;orthogonalLoop=1;jettySize=auto;html=1;dashed=1;" edge="1" parent="1" source="f04tPwx1q8W1xNw42oUn-5" target="f04tPwx1q8W1xNw42oUn-14">
          <mxGeometry relative="1" as="geometry" />
        </mxCell>
        <mxCell id="f04tPwx1q8W1xNw42oUn-16" value="read connection string" style="edgeLabel;html=1;align=center;verticalAlign=middle;resizable=0;points=[];rotation=-90;" vertex="1" connectable="0" parent="f04tPwx1q8W1xNw42oUn-15">
          <mxGeometry x="-0.1829" y="2" relative="1" as="geometry">
            <mxPoint x="-8" y="-12" as="offset" />
          </mxGeometry>
        </mxCell>
        <mxCell id="f04tPwx1q8W1xNw42oUn-18" style="edgeStyle=orthogonalEdgeStyle;rounded=0;orthogonalLoop=1;jettySize=auto;html=1;dashed=1;" edge="1" parent="1" source="f04tPwx1q8W1xNw42oUn-5" target="f04tPwx1q8W1xNw42oUn-1">
          <mxGeometry relative="1" as="geometry" />
        </mxCell>
        <mxCell id="f04tPwx1q8W1xNw42oUn-20" value="create schema" style="edgeLabel;html=1;align=center;verticalAlign=middle;resizable=0;points=[];rotation=-90;" vertex="1" connectable="0" parent="f04tPwx1q8W1xNw42oUn-18">
          <mxGeometry x="-0.0867" relative="1" as="geometry">
            <mxPoint x="-10" y="4" as="offset" />
          </mxGeometry>
        </mxCell>
        <mxCell id="f04tPwx1q8W1xNw42oUn-5" value="Generate schema" style="whiteSpace=wrap;html=1;rounded=0;fillColor=#fff2cc;strokeColor=#d6b656;" vertex="1" parent="1">
          <mxGeometry x="470" y="250" width="120" height="60" as="geometry" />
        </mxCell>
        <mxCell id="f04tPwx1q8W1xNw42oUn-25" style="edgeStyle=orthogonalEdgeStyle;rounded=0;orthogonalLoop=1;jettySize=auto;html=1;dashed=1;entryX=0.5;entryY=1;entryDx=0;entryDy=0;" edge="1" parent="1" source="f04tPwx1q8W1xNw42oUn-10" target="f04tPwx1q8W1xNw42oUn-33">
          <mxGeometry relative="1" as="geometry">
            <mxPoint x="700.0000000000002" y="90" as="targetPoint" />
          </mxGeometry>
        </mxCell>
        <mxCell id="f04tPwx1q8W1xNw42oUn-26" value="generate data" style="edgeLabel;html=1;align=center;verticalAlign=middle;resizable=0;points=[];rotation=-90;" vertex="1" connectable="0" parent="f04tPwx1q8W1xNw42oUn-25">
          <mxGeometry x="0.0942" y="-3" relative="1" as="geometry">
            <mxPoint x="-13" y="7" as="offset" />
          </mxGeometry>
        </mxCell>
        <mxCell id="f04tPwx1q8W1xNw42oUn-29" value="" style="edgeStyle=orthogonalEdgeStyle;rounded=0;orthogonalLoop=1;jettySize=auto;html=1;" edge="1" parent="1" source="f04tPwx1q8W1xNw42oUn-10" target="f04tPwx1q8W1xNw42oUn-28">
          <mxGeometry relative="1" as="geometry" />
        </mxCell>
        <mxCell id="f04tPwx1q8W1xNw42oUn-10" value="Generate data" style="whiteSpace=wrap;html=1;rounded=0;fillColor=#fff2cc;strokeColor=#d6b656;" vertex="1" parent="1">
          <mxGeometry x="640" y="250" width="120" height="60" as="geometry" />
        </mxCell>
        <mxCell id="f04tPwx1q8W1xNw42oUn-14" value="settings.json" style="shape=note;whiteSpace=wrap;html=1;backgroundOutline=1;darkOpacity=0.05;fillColor=#dae8fc;strokeColor=#6c8ebf;" vertex="1" parent="1">
          <mxGeometry x="490" y="30" width="80" height="80" as="geometry" />
        </mxCell>
        <mxCell id="f04tPwx1q8W1xNw42oUn-30" style="edgeStyle=orthogonalEdgeStyle;rounded=0;orthogonalLoop=1;jettySize=auto;html=1;dashed=1;entryX=1;entryY=0.5;entryDx=0;entryDy=0;" edge="1" parent="1" target="f04tPwx1q8W1xNw42oUn-1">
          <mxGeometry relative="1" as="geometry">
            <mxPoint x="870" y="312" as="sourcePoint" />
            <mxPoint x="560" y="504" as="targetPoint" />
            <Array as="points">
              <mxPoint x="870" y="440" />
            </Array>
          </mxGeometry>
        </mxCell>
        <mxCell id="f04tPwx1q8W1xNw42oUn-31" value="insert generated data" style="edgeLabel;html=1;align=center;verticalAlign=middle;resizable=0;points=[];" vertex="1" connectable="0" parent="f04tPwx1q8W1xNw42oUn-30">
          <mxGeometry x="0.284" y="-2" relative="1" as="geometry">
            <mxPoint x="1" y="-8" as="offset" />
          </mxGeometry>
        </mxCell>
        <mxCell id="f04tPwx1q8W1xNw42oUn-28" value="Seed data" style="whiteSpace=wrap;html=1;rounded=0;fillColor=#fff2cc;strokeColor=#d6b656;" vertex="1" parent="1">
          <mxGeometry x="810" y="250" width="120" height="60" as="geometry" />
        </mxCell>
        <mxCell id="f04tPwx1q8W1xNw42oUn-33" value="Seedly Engine" style="shape=process;whiteSpace=wrap;html=1;backgroundOutline=1;fillColor=#dae8fc;strokeColor=#6c8ebf;" vertex="1" parent="1">
          <mxGeometry x="640" y="40" width="120" height="60" as="geometry" />
        </mxCell>
      </root>
    </mxGraphModel>
  </diagram>
</mxfile>
